<svg width="20.000000" height="19.000000" viewBox="0 0 20 19" fill="none" xmlns="http://www.w3.org/2000/svg" xmlns:xlink="http://www.w3.org/1999/xlink">
	<desc>
			Created with Pixso.
	</desc>
	<defs>
		<clipPath id="clip1_478">
			<rect id="IMAGE" width="20.000000" height="19.000000" fill="white" fill-opacity="0"/>
		</clipPath>
	</defs>
	<g clip-path="url(#clip1_478)">
		<path id="Vector" d="M13.6585 1.54688C14.7231 1.55078 15.7431 1.95898 16.4958 2.68359C17.2486 3.4082 17.6729 4.39062 17.6761 5.41602L17.6761 13.1523C17.6729 14.1777 17.2486 15.1602 16.4958 15.8848C15.7431 16.6094 14.7231 17.0186 13.6585 17.0215L5.62433 17.0215C4.55975 17.0186 3.53973 16.6094 2.78699 15.8848C2.03424 15.1602 1.60992 14.1777 1.60675 13.1523L1.60675 5.41602C1.60992 4.39062 2.03424 3.4082 2.78699 2.68359C3.53973 1.95898 4.55975 1.55078 5.62433 1.54688L13.6585 1.54688ZM13.6585 0L5.62433 0C2.53088 0 0 2.4375 0 5.41602L0 13.1523C0 16.1318 2.53088 18.5684 5.62433 18.5684L13.6585 18.5684C16.752 18.5684 19.2828 16.1318 19.2828 13.1523L19.2828 5.41602C19.2828 2.4375 16.752 0 13.6585 0Z" fill="#274C5B" fill-opacity="1.000000" fill-rule="nonzero"/>
		<path id="Vector" d="M14.8633 5.41699C14.6249 5.41699 14.3919 5.34863 14.1937 5.22168C13.9956 5.09375 13.8411 4.91211 13.7499 4.7002C13.6587 4.48828 13.6348 4.25488 13.6813 4.03027C13.7278 3.80469 13.8426 3.59766 14.0111 3.43555C14.1797 3.27344 14.3944 3.16309 14.6282 3.11816C14.862 3.07324 15.1043 3.09668 15.3245 3.18359C15.5447 3.27148 15.7329 3.4209 15.8654 3.61133C15.9978 3.80273 16.0685 4.02637 16.0685 4.25586C16.0688 4.40918 16.0379 4.55957 15.9774 4.70117C15.917 4.8418 15.8282 4.96973 15.7163 5.07715C15.6043 5.18555 15.4713 5.27051 15.3249 5.3291C15.1785 5.3877 15.0217 5.41699 14.8633 5.41699ZM9.64099 6.19043C10.2767 6.19043 10.8981 6.37207 11.4266 6.71191C11.9551 7.05176 12.3671 7.53516 12.6103 8.10059C12.8536 8.66602 12.9172 9.28809 12.7932 9.88867C12.6692 10.4893 12.3631 11.041 11.9136 11.4736C11.4641 11.9062 10.8915 12.2012 10.268 12.3203C9.64459 12.4404 8.99835 12.3789 8.41107 12.1445C7.82379 11.9102 7.3219 11.5137 6.96869 11.0049C6.61554 10.4951 6.42706 9.89746 6.42706 9.28516C6.42798 8.46484 6.76691 7.67773 7.36945 7.09766C7.97198 6.51758 8.78888 6.19141 9.64099 6.19043ZM9.64099 4.64258C8.68756 4.64258 7.75555 4.91504 6.96277 5.42578C6.17004 5.93555 5.55212 6.66016 5.18726 7.50879C4.82239 8.35645 4.72693 9.29004 4.91296 10.1904C5.09894 11.0908 5.55811 11.918 6.23224 12.5674C6.90643 13.2168 7.76544 13.6592 8.70056 13.8379C9.63568 14.0176 10.605 13.9248 11.4858 13.5742C12.3667 13.2227 13.1196 12.6279 13.6493 11.8643C14.179 11.1006 14.4617 10.2031 14.4617 9.28516C14.4617 8.05371 13.9538 6.87305 13.0498 6.00293C12.1457 5.13184 10.9196 4.64258 9.64099 4.64258Z" fill="#274C5B" fill-opacity="1.000000" fill-rule="nonzero"/>
	</g>
</svg>
