<svg width="19.282776" height="18.457031" viewBox="0 0 19.2828 18.457" fill="none" xmlns="http://www.w3.org/2000/svg" xmlns:xlink="http://www.w3.org/1999/xlink">
	<desc>
			Created with Pixso.
	</desc>
	<defs/>
	<path id="Vector" d="M19.2828 9.28418C19.2828 4.15723 14.9657 0 9.64142 0C4.31714 0 0 4.15723 0 9.28418C0 13.918 3.52515 17.7588 8.13495 18.4561L8.13495 11.9688L5.68628 11.9688L5.68628 9.28418L8.13495 9.28418L8.13495 7.23926C8.13495 4.91211 9.57471 3.62598 11.7767 3.62598C12.8317 3.62598 13.9353 3.80762 13.9353 3.80762L13.9353 6.09277L12.7189 6.09277C11.5219 6.09277 11.1475 6.80859 11.1475 7.54395L11.1475 9.28418L13.8212 9.28418L13.3942 11.9688L11.1479 11.9688L11.1479 18.457C15.7577 17.7607 19.2828 13.9189 19.2828 9.28418Z" fill="#274C5B" fill-opacity="1.000000" fill-rule="evenodd"/>
</svg>
