<svg width="19.588928" height="19.588867" viewBox="0 0 19.5889 19.5889" fill="none" xmlns="http://www.w3.org/2000/svg" xmlns:xlink="http://www.w3.org/1999/xlink">
	<desc>
			Created with Pixso.
	</desc>
	<defs/>
	<path id="Vector" d="M9.79663 0C4.3866 0 0 4.38477 0 9.79199C0 13.8008 2.41418 17.2461 5.86487 18.7627C5.83862 18.0811 5.86047 17.2588 6.0354 16.5156C6.22351 15.7197 7.29498 11.1777 7.29498 11.1777C7.29498 11.1777 6.9801 10.5527 6.9801 9.63086C6.9801 8.17871 7.81982 7.09473 8.86945 7.09473C9.76166 7.09473 10.1903 7.76367 10.1903 8.56348C10.1903 9.45996 9.61731 10.7979 9.32428 12.0391C9.07941 13.0801 9.84473 13.9238 10.8725 13.9238C12.7269 13.9238 13.9777 11.541 13.9777 8.7168C13.9777 6.57031 12.5301 4.96582 9.90161 4.96582C6.93201 4.96582 5.07764 7.18262 5.07764 9.65723C5.07764 10.5088 5.3313 11.1123 5.72491 11.5762C5.90424 11.79 5.93048 11.8779 5.86487 12.1221C5.81677 12.3018 5.71179 12.7344 5.6637 12.9092C5.59808 13.1582 5.39691 13.2461 5.17383 13.1543C3.80493 12.5947 3.16638 11.0996 3.16638 9.41211C3.16638 6.63184 5.51495 3.2959 10.1684 3.2959C13.9077 3.2959 16.37 6.00195 16.37 8.90527C16.37 12.7471 14.2314 15.6152 11.0824 15.6152C10.0241 15.6152 9.03125 15.043 8.69012 14.3955C8.69012 14.3955 8.12158 16.6514 7.99915 17.0889C7.79358 17.8447 7.38684 18.5967 7.01508 19.1865C7.91687 19.4521 8.85205 19.5879 9.79224 19.5889C15.2023 19.5889 19.5889 15.2041 19.5889 9.79688C19.5889 4.38867 15.2067 0 9.79663 0Z" fill="#274C5B" fill-opacity="1.000000" fill-rule="nonzero"/>
</svg>
