<svg width="20.660217" height="16.528320" viewBox="0 0 20.6602 16.5283" fill="none" xmlns="http://www.w3.org/2000/svg" xmlns:xlink="http://www.w3.org/1999/xlink">
	<desc>
			Created with Pixso.
	</desc>
	<defs/>
	<path id="Vector" d="M20.6602 1.95801C19.8852 2.29492 19.0652 2.5166 18.2261 2.61719C19.1079 2.10059 19.7711 1.28027 20.0912 0.30957C19.2575 0.797852 18.3469 1.13965 17.3984 1.32129C16.9991 0.902344 16.5187 0.570312 15.9866 0.342773C15.4546 0.115234 14.8818 -0.000976562 14.3033 0C11.9609 0 10.0654 1.86816 10.0654 4.1709C10.0637 4.49121 10.1004 4.81055 10.1747 5.12207C8.49506 5.04297 6.85034 4.61523 5.34583 3.86426C3.84125 3.11328 2.51001 2.05664 1.43719 0.761719C1.06079 1.39648 0.861755 2.12012 0.86084 2.8584C0.86084 4.30469 1.61536 5.58301 2.7547 6.33105C2.07965 6.31543 1.41852 6.13672 0.827271 5.81055L0.827271 5.8623C0.827271 7.88574 2.29071 9.56836 4.2276 9.95117C3.86334 10.0488 3.48804 10.0977 3.11108 10.0977C2.84363 10.0977 2.57672 10.0723 2.31439 10.0205C2.85284 11.6777 4.41998 12.8828 6.27637 12.917C4.76794 14.0791 2.91595 14.708 1.01147 14.7031C0.673462 14.7031 0.335693 14.6826 0 14.6426C1.93738 15.8799 4.18945 16.5342 6.48816 16.5283C14.2943 16.5283 18.5589 10.1709 18.5589 4.65723C18.5589 4.47656 18.5541 4.2959 18.5455 4.11914C19.3733 3.53027 20.0893 2.79883 20.6602 1.95801Z" fill="#274C5B" fill-opacity="1.000000" fill-rule="nonzero"/>
</svg>
