<svg width="26.000000" height="24.000000" viewBox="0 0 26 24" fill="none" xmlns="http://www.w3.org/2000/svg" xmlns:xlink="http://www.w3.org/1999/xlink">
	<desc>
			Created with Pixso.
	</desc>
	<defs>
		<clipPath id="clip1_34">
			<rect id="IMAGE" width="26.000000" height="24.000000" fill="white" fill-opacity="0"/>
		</clipPath>
	</defs>
	<g clip-path="url(#clip1_34)">
		<path id="Vector" d="M10.778 23.0001C11.4529 23.0001 12.0001 22.4529 12.0001 21.7779C12.0001 21.1029 11.4529 20.5557 10.778 20.5557C10.1029 20.5557 9.55566 21.1029 9.55566 21.7779C9.55566 22.4529 10.1029 23.0001 10.778 23.0001Z" fill="#FFFFFF" fill-opacity="1.000000" fill-rule="nonzero"/>
		<path id="Vector" d="M12.0001 21.7779C12.0001 21.1029 11.4529 20.5557 10.778 20.5557C10.1029 20.5557 9.55566 21.1029 9.55566 21.7779C9.55566 22.4529 10.1029 23.0001 10.778 23.0001C11.4529 23.0001 12.0001 22.4529 12.0001 21.7779Z" stroke="#FFFFFF" stroke-opacity="1.000000" stroke-width="1.500000" stroke-linejoin="round"/>
		<path id="Vector" d="M19.3336 23.0001C20.0087 23.0001 20.5558 22.4529 20.5558 21.7779C20.5558 21.1029 20.0087 20.5557 19.3336 20.5557C18.6586 20.5557 18.1113 21.1029 18.1113 21.7779C18.1113 22.4529 18.6586 23.0001 19.3336 23.0001Z" fill="#FFFFFF" fill-opacity="1.000000" fill-rule="nonzero"/>
		<path id="Vector" d="M20.5558 21.7779C20.5558 21.1029 20.0087 20.5557 19.3336 20.5557C18.6586 20.5557 18.1113 21.1029 18.1113 21.7779C18.1113 22.4529 18.6586 23.0001 19.3336 23.0001C20.0087 23.0001 20.5558 22.4529 20.5558 21.7779Z" stroke="#FFFFFF" stroke-opacity="1.000000" stroke-width="1.500000" stroke-linejoin="round"/>
		<path id="Vector" d="M1 1L4.78186 1L7.61829 17.0731L22.7458 17.0731" stroke="#FFFFFF" stroke-opacity="1.000000" stroke-width="2.000000" stroke-linejoin="round" stroke-linecap="round"/>
		<path id="Vector" d="M7.11121 13.1837L22.3584 13.2907C22.4678 13.2908 22.5737 13.2529 22.6583 13.1837C22.7429 13.1144 22.8008 13.0179 22.8223 12.9107L24.5242 4.40145C24.5378 4.33282 24.5363 4.26202 24.5192 4.19414C24.5023 4.12625 24.4705 4.06297 24.4261 4.00886C24.3817 3.95476 24.3259 3.91118 24.2626 3.88128C24.1993 3.85138 24.1302 3.83588 24.0602 3.83594L5.56738 3.83594" stroke="#FFFFFF" stroke-opacity="1.000000" stroke-width="2.000000" stroke-linejoin="round" stroke-linecap="round"/>
	</g>
</svg>
